<?xml version="1.0" encoding="utf-8"?>
<svg version="1.1" xmlns:xlink="http://www.w3.org/1999/xlink" width="50px" height="50px" xmlns="http://www.w3.org/2000/svg">
  <g transform="matrix(1 0 0 1 -762 -486 )">
    <path d="M 25 0  C 38.8104838709677 0  50 11.1895161290323  50 25  C 50 38.8104838709677  38.8104838709677 50  25 50  C 11.1895161290323 50  0 38.8104838709677  0 25  C 0 11.1895161290323  11.1895161290323 0  25 0  Z M 38.9818548387097 22.0463709677419  C 38.0241935483871 21.0887096774194  36.4616935483871 21.1088709677419  35.5241935483871 22.0866935483871  L 28 29.6975806451613  L 28 11.2903225806452  C 28.2258064516129 9.94959677419355  27.1471774193548 8.87096774193548  25.8064516129032 8.87096774193548  L 24.1935483870968 8.87096774193548  C 22.8528225806452 8.87096774193548  21.7741935483871 9.94959677419355  22 11.2903225806452  L 22 29.6975806451613  L 14.4758064516129 22.0866935483871  C 13.5383064516129 21.1088709677419  11.9758064516129 21.0887096774194  11.0181451612903 22.0463709677419  L 9.91935483870968 23.1552419354839  C 8.97177419354839 24.1028225806452  8.97177419354839 25.6350806451613  9.91935483870968 26.5725806451613  L 23.2862903225806 39.9495967741936  C 24.2338709677419 40.8971774193548  25.7661290322581 40.8971774193548  26.7036290322581 39.9495967741936  L 40.0806451612903 26.5725806451613  C 41.0282258064516 25.625  41.0282258064516 24.0927419354839  40.0806451612903 23.1552419354839  L 38.9818548387097 22.0463709677419  Z " fill-rule="nonzero" fill="#80ffff" stroke="none" transform="matrix(1 0 0 1 762 486 )" />
  </g>
</svg>