<?xml version="1.0" encoding="utf-8"?>
<svg version="1.1" xmlns:xlink="http://www.w3.org/1999/xlink" width="300px" height="170px" xmlns="http://www.w3.org/2000/svg">
  <g transform="matrix(1 0 0 1 -1002 -377 )">
    <path d="M 1002 377  L 1302 377  L 1302 547  L 1002 547  L 1002 377  " fill-rule="nonzero" fill="#cccccc" stroke="none" />
    <path d="M 1014 389  L 1290 389  L 1290 535  L 1014 535  L 1014 389  " fill-rule="nonzero" fill="#ffffff" stroke="none" />
    <path d="M 1170.75 428  C 1163.61 428  1158 422.39  1158 415.25  C 1158 408.11  1163.61 402.5  1170.75 402.5  C 1177.89 402.5  1183.5 408.11  1183.5 415.25  C 1183.5 422.39  1177.89 428  1170.75 428  " fill-rule="nonzero" fill="#cccccc" stroke="none" />
    <path d="M 1019 531  L 1019 455.65  L 1085.75 421.4  L 1179.2 484.42  L 1232.6 441.95  L 1286 484.42  L 1286 531  L 1019 531  " fill-rule="nonzero" fill="#169bd5" stroke="none" />
  </g>
</svg>