<?xml version="1.0" encoding="utf-8"?>
<svg version="1.1" xmlns:xlink="http://www.w3.org/1999/xlink" width="90px" height="55px" xmlns="http://www.w3.org/2000/svg">
  <g transform="matrix(1 0 0 1 -773 -745 )">
    <path d="M 773 745  L 863 745  L 863 800  L 773 800  L 773 745  " fill-rule="nonzero" fill="#cccccc" stroke="none" />
    <path d="M 777 749  L 859 749  L 859 796  L 777 796  L 777 749  " fill-rule="nonzero" fill="#ffffff" stroke="none" />
    <path d="M 823.925 761.5  C 821.615 761.5  819.8 759.685  819.8 757.375  C 819.8 755.065  821.615 753.25  823.925 753.25  C 826.235 753.25  828.05 755.065  828.05 757.375  C 828.05 759.685  826.235 761.5  823.925 761.5  " fill-rule="nonzero" fill="#cccccc" stroke="none" />
    <path d="M 779 795  L 779 770.8  L 798.75 759.8  L 826.4 778.866666666667  L 842.2 766.4  L 858 778.866666666667  L 858 795  L 779 795  " fill-rule="nonzero" fill="#169bd5" stroke="none" />
  </g>
</svg>