<?xml version="1.0" encoding="utf-8"?>
<svg version="1.1" xmlns:xlink="http://www.w3.org/1999/xlink" width="33px" height="26px" xmlns="http://www.w3.org/2000/svg">
  <g transform="matrix(1 0 0 1 -1511 -260 )">
    <path d="M 30.256875 15.2715282651072  C 30.1146197916667 15.8253333333333  29.5580885416667 16.2183235867446  28.916078125 16  L 12.1213125 16  L 12.4962864583333 17.8401559454191  L 27.8744010416667 17.8401559454191  C 28.75675 17.8401559454191  29.410734375 18.564962962963  29.2151979166667 19.3261091617934  L 28.8991197916667 20.5564717348928  C 29.9699583333333 21.0163118908382  30.7083333333333 21.9873840155945  30.7083333333333 23.1111111111111  C 30.7083333333333 24.6924990253411  29.2463072916667 25.971820662768  27.4527916666667 25.9490136452242  C 25.7441822916667 25.9272709551657  24.3389895833333 24.7006588693957  24.2928697916667 23.1895165692008  C 24.2676614583333 22.3640545808967  24.6414895833333 21.6158830409357  25.2555416666667 21  L 13.2444583333333 21  C 13.8389739583333 21.5990058479532  14.2083333333333 22.3167173489279  14.2083333333333 23.1111111111111  C 14.2083333333333 24.7234658869396  12.6885 26.0218440545809  10.84703125 25.9461754385965  C 9.21192708333333 25.8790214424951  7.88213020833333 24.7102884990253  7.79619270833333 23.2642222222222  C 7.72984895833333 22.1474892787524  8.39408854166667 21.1631890838207  9.40328125 20.6497270955166  L 5.37871354166667 3.24366471734893  L 1.375 3.24366471734893  C 0.615598958333333 3.24366471734893  0 2.69908382066277  0 2.02729044834308  L 0 1.21637426900585  C 0 0.54458089668616  0.615598958333333 0  1.375 0  L 7.24905729166667 0  C 7.90223958333333 0  8.46524479166667 0.406522417153996  8.59615625 0.972592592592593  L 9.12129166666667 3.24366471734893  L 31.6244270833333 3.24366471734893  C 32.5067760416667 3.24366471734893  33.1607604166667 3.96847173489279  32.9652239583333 4.7296179337232  L 30.256875 15.2715282651072  Z M 24.2916666666667 9.32553606237817  C 24.2916666666667 8.87765692007797  23.8812864583333 8.51461988304094  23.375 8.51461988304094  L 20.625 8.51461988304094  L 20.625 6.48732943469786  C 20.625 6.03945029239766  20.2146197916667 5.67641325536062  19.7083333333333 5.67641325536062  L 18.7916666666667 5.67641325536062  C 18.2853802083333 5.67641325536062  17.875 6.03945029239766  17.875 6.48732943469786  L 17.875 8.51461988304094  L 15.125 8.51461988304094  C 14.6187135416667 8.51461988304094  14.2083333333333 8.87765692007797  14.2083333333333 9.32553606237817  L 14.2083333333333 10.1364522417154  C 14.2083333333333 10.5843313840156  14.6187135416667 10.9473684210526  15.125 10.9473684210526  L 17.875 10.9473684210526  L 17.875 12.9746588693957  C 17.875 13.4225380116959  18.2853802083333 13.7855750487329  18.7916666666667 13.7855750487329  L 19.7083333333333 13.7855750487329  C 20.2146197916667 13.7855750487329  20.625 13.4225380116959  20.625 12.9746588693957  L 20.625 10.9473684210526  L 23.375 10.9473684210526  C 23.8812864583333 10.9473684210526  24.2916666666667 10.5843313840156  24.2916666666667 10.1364522417154  L 24.2916666666667 9.32553606237817  Z " fill-rule="nonzero" fill="#006243" stroke="none" transform="matrix(1 0 0 1 1511 260 )" />
  </g>
</svg>