<?xml version="1.0" encoding="utf-8"?>
<svg version="1.1" xmlns:xlink="http://www.w3.org/1999/xlink" width="145px" height="114px" xmlns="http://www.w3.org/2000/svg">
  <g transform="matrix(1 0 0 1 -464 -238 )">
    <path d="M 464 238  L 609 238  L 609 352  L 464 352  L 464 238  " fill-rule="nonzero" fill="#cccccc" stroke="none" />
    <path d="M 472 246  L 601 246  L 601 344  L 472 344  L 472 246  " fill-rule="nonzero" fill="#ffffff" stroke="none" />
    <path d="M 547.95 272.2  C 543.162 272.2  539.4 268.438  539.4 263.65  C 539.4 258.862  543.162 255.1  547.95 255.1  C 552.738 255.1  556.5 258.862  556.5 263.65  C 556.5 268.438  552.738 272.2  547.95 272.2  " fill-rule="nonzero" fill="#cccccc" stroke="none" />
    <path d="M 475 341  L 475 290.4  L 505.75 267.4  L 548.8 297.601379310345  L 573.4 281.2  L 598 297.601379310345  L 598 341  L 475 341  " fill-rule="nonzero" fill="#169bd5" stroke="none" />
  </g>
</svg>